<?xml version="1.0" encoding="UTF-8"?>
<svg width="241px" height="60px" viewBox="0 0 241 60" version="1.1" xmlns="http://www.w3.org/2000/svg" xmlns:xlink="http://www.w3.org/1999/xlink">
    <!-- Generator: Sketch 52.5 (67469) - http://www.bohemiancoding.com/sketch -->
    <title>Logo</title>
    <desc>Created with Sketch.</desc>
    <g id="Page-1" stroke="none" stroke-width="1" fill="none" fill-rule="evenodd">
        <g id="Login-2" transform="translate(-45.000000, -40.000000)">
            <g id="Group-2">
                <g id="Logo" transform="translate(45.000000, 40.000000)">
                    <path d="M72.9619349,42.9315715 C70.0048389,42.9315715 67.5171233,42.2915207 65.4987879,41.0122161 C63.4796291,39.7321144 62.0583125,37.9921008 61.2340148,35.790581 L66.2662659,32.9418367 C67.4314819,35.887027 69.7207403,37.3584266 73.1323941,37.3584266 C74.7809895,37.3584266 75.9898497,37.0698856 76.7573277,36.4920066 C77.5256291,35.9141276 77.9085447,35.1848044 77.9085447,34.3040371 C77.9085447,33.2861729 77.4399878,32.4946779 76.5020507,31.9303492 C75.56329,31.3668175 73.885873,30.7538672 71.4697996,30.0938895 C70.1324774,29.7089025 69.0026708,29.3231185 68.0787327,28.9381315 C67.1547946,28.5523474 66.230033,28.0366402 65.3069184,27.3894157 C64.3829803,26.7429883 63.6789098,25.9243928 63.1955305,24.9336292 C62.7121511,23.9428656 62.4708731,22.7871075 62.4708731,21.4663551 C62.4708731,18.8519507 63.4302206,16.7676009 65.3489156,15.2125085 C67.268434,13.6574162 69.5782793,12.8794715 72.2792748,12.8794715 C74.6953482,12.8794715 76.8215587,13.4517709 78.6554358,14.5931816 C80.4893129,15.7353894 81.9172173,17.324756 82.9416192,19.3612813 L77.994186,22.1263328 C76.8001483,19.6498223 74.8954524,18.4111685 72.2792748,18.4111685 C71.057239,18.4111685 70.0970681,18.6797826 69.4012323,19.2162138 C68.7037496,19.7526449 68.3562435,20.4476939 68.3562435,21.3005636 C68.3562435,22.2092285 68.7465703,22.9457254 69.5288708,23.509257 C70.3103479,24.0735858 71.8107179,24.685739 74.0275106,25.3465138 C74.9374496,25.6215045 75.627521,25.8351205 76.0969013,25.9865646 C76.5654582,26.1380088 77.2052977,26.3715516 78.0155963,26.6879902 C78.825895,27.0052258 79.4509119,27.3009405 79.8922941,27.5751341 C80.3328528,27.8509219 80.8368191,28.2223586 81.4058398,28.6902413 C81.974037,29.1581241 82.4080079,29.6395571 82.706929,30.1345403 C83.0050267,30.6303207 83.2611272,31.2289236 83.474407,31.9303492 C83.6876869,32.6325718 83.793915,33.3961692 83.793915,34.2219384 C83.793915,36.8913409 82.7925704,39.0099649 80.7874106,40.5786076 C78.7830743,42.1472502 76.1743079,42.9315715 72.9619349,42.9315715" id="Fill-23" fill="#FFFFFF"></path>
                    <path d="M90.8785396,35.9946962 C91.9744946,37.1189711 93.3660155,37.6802844 95.0531023,37.6802844 C96.7393748,37.6802844 98.1382238,37.1189711 99.2488349,35.9946962 C100.359446,34.8704212 100.914752,33.4263379 100.914752,31.6616219 C100.914752,29.8977301 100.359446,28.4536467 99.2488349,27.3293718 C98.1382238,26.2050968 96.7393748,25.6429594 95.0531023,25.6429594 C93.3660155,25.6429594 91.9744946,26.2050968 90.8785396,27.3293718 C89.7817703,28.4536467 89.2337928,29.8977301 89.2337928,31.6616219 C89.2337928,33.4263379 89.7817703,34.8704212 90.8785396,35.9946962 Z M100.914752,20.9900766 L106.353815,20.9900766 L106.353815,42.3331671 L100.914752,42.3331671 L100.914752,39.815088 C99.2838469,41.8930184 96.9926007,42.9315715 94.041013,42.9315715 C91.2294732,42.9315715 88.818535,41.8427392 86.8090127,39.665899 C84.7986762,37.4882345 83.793915,34.8209663 83.793915,31.6616219 C83.793915,28.5031016 84.7986762,25.8350093 86.8090127,23.658169 C88.818535,21.4813287 91.2294732,20.3924965 94.041013,20.3924965 C96.9926007,20.3924965 99.2838469,21.4318738 100.914752,23.50898 L100.914752,20.9900766 Z" id="Fill-25" fill="#FFFFFF"></path>
                    <path d="M114.533891,36.0918702 C115.643688,37.200396 117.042537,37.7538461 118.729623,37.7538461 C120.41671,37.7538461 121.808231,37.200396 122.904186,36.0918702 C124.000141,34.9833445 124.548933,33.5594903 124.548933,31.819495 C124.548933,30.0803124 124.000141,28.6564583 122.904186,27.5479325 C121.808231,26.4394068 120.41671,25.8851439 118.729623,25.8851439 C117.042537,25.8851439 115.643688,26.4394068 114.533891,27.5479325 C113.42328,28.6564583 112.867974,30.0803124 112.867974,31.819495 C112.867974,33.5594903 113.42328,34.9833445 114.533891,36.0918702 Z M124.548933,12.8794715 L129.987996,12.8794715 L129.987996,42.3415497 L124.548933,42.3415497 L124.548933,39.8587447 C122.946526,41.9075668 120.669122,42.9315715 117.717534,42.9315715 C114.877496,42.9315715 112.452716,41.857992 110.444008,39.7116456 C108.432857,37.5644865 107.428096,34.9345824 107.428096,31.819495 C107.428096,28.7052204 108.432857,26.0745035 110.444008,23.9281572 C112.452716,21.7818108 114.877496,20.7082312 117.717534,20.7082312 C120.669122,20.7082312 122.946526,21.7330487 124.548933,23.7810581 L124.548933,12.8794715 Z" id="Fill-27" fill="#FFFFFF"></path>
                    <path d="M136.589558,29.6557398 L147.186723,29.6557398 C146.881792,28.2041851 146.251868,27.1227315 145.296149,26.4113791 C144.339628,25.7000266 143.252307,25.3447625 142.033384,25.3447625 C140.592985,25.3447625 139.401346,25.7214578 138.459269,26.4756728 C137.517191,27.2298878 136.893687,28.2899101 136.589558,29.6557398 Z M136.673013,33.9246788 C137.392811,36.6002873 139.345977,37.9372672 142.532509,37.9372672 C144.581968,37.9372672 146.133908,37.2267391 147.186723,35.8032099 L151.508723,38.3642436 C149.458461,41.4099531 146.438036,42.9315715 142.449054,42.9315715 C139.013762,42.9315715 136.256541,41.8649549 134.178996,39.7300733 C132.101451,37.5960159 131.062277,34.9063947 131.062277,31.662034 C131.062277,28.446523 132.087007,25.7643203 134.137269,23.6154259 C136.18753,21.4665315 138.819569,20.3924965 142.033384,20.3924965 C145.081092,20.3924965 147.59517,21.47395 149.576421,23.6368572 C151.55687,25.7997643 152.547897,28.4753728 152.547897,31.662034 C152.547897,32.3733864 152.478083,33.1284257 152.340062,33.9246788 L136.673013,33.9246788 Z" id="Fill-29" fill="#FFFFFF"></path>
                    <path d="M159.149458,29.6557398 L169.746623,29.6557398 C169.441692,28.2041851 168.811768,27.1227315 167.856049,26.4113791 C166.899528,25.7000266 165.812207,25.3447625 164.593284,25.3447625 C163.152885,25.3447625 161.960443,25.7214578 161.019169,26.4756728 C160.077092,27.2298878 159.453587,28.2899101 159.149458,29.6557398 Z M159.232913,33.9246788 C159.952712,36.6002873 161.905877,37.9372672 165.092409,37.9372672 C167.141868,37.9372672 168.693808,37.2267391 169.746623,35.8032099 L174.068623,38.3642436 C172.018361,41.4099531 168.997937,42.9315715 165.008954,42.9315715 C161.573662,42.9315715 158.816441,41.8649549 156.738896,39.7300733 C154.661351,37.5960159 153.622178,34.9063947 153.622178,31.662034 C153.622178,28.446523 154.646907,25.7643203 156.697169,23.6154259 C158.747431,21.4665315 161.379469,20.3924965 164.593284,20.3924965 C167.640992,20.3924965 170.155071,21.47395 172.136322,23.6368572 C174.11677,25.7997643 175.107797,28.4753728 175.107797,31.662034 C175.107797,32.3733864 175.037984,33.1284257 174.899962,33.9246788 L159.232913,33.9246788 Z" id="Fill-31" fill="#FFFFFF"></path>
                    <path d="M183.287872,36.0918702 C184.397669,37.200396 185.796518,37.7538461 187.483605,37.7538461 C189.170692,37.7538461 190.562213,37.200396 191.658168,36.0918702 C192.754123,34.9833445 193.302914,33.5594903 193.302914,31.819495 C193.302914,30.0803124 192.754123,28.6564583 191.658168,27.5479325 C190.562213,26.4394068 189.170692,25.8851439 187.483605,25.8851439 C185.796518,25.8851439 184.397669,26.4394068 183.287872,27.5479325 C182.177261,28.6564583 181.621956,30.0803124 181.621956,31.819495 C181.621956,33.5594903 182.177261,34.9833445 183.287872,36.0918702 Z M193.302914,12.8794715 L198.741978,12.8794715 L198.741978,42.3415497 L193.302914,42.3415497 L193.302914,39.8587447 C191.700508,41.9075668 189.423103,42.9315715 186.471516,42.9315715 C183.631478,42.9315715 181.206698,41.857992 179.19799,39.7116456 C177.186839,37.5644865 176.182078,34.9345824 176.182078,31.819495 C176.182078,28.7052204 177.186839,26.0745035 179.19799,23.9281572 C181.206698,21.7818108 183.631478,20.7082312 186.471516,20.7082312 C189.423103,20.7082312 191.700508,21.7330487 193.302914,23.7810581 L193.302914,12.8794715 Z" id="Fill-33" fill="#FFFFFF"></path>
                    <path d="M207.304378,41.8264639 C206.567244,42.5629178 205.682341,42.9315715 204.650523,42.9315715 C203.617852,42.9315715 202.732949,42.5629178 201.996669,41.8264639 C201.25868,41.0900099 200.89054,40.2067772 200.89054,39.175059 C200.89054,38.1441941 201.25868,37.2601081 201.996669,36.5236541 C202.732949,35.7872001 203.617852,35.4185465 204.650523,35.4185465 C205.682341,35.4185465 206.567244,35.7872001 207.304378,36.5236541 C208.041512,37.2601081 208.410507,38.1441941 208.410507,39.175059 C208.410507,40.2067772 208.041512,41.0900099 207.304378,41.8264639" id="Fill-35" fill="#FFFFFF"></path>
                    <path d="M211.167315,41.8582822 L216.397291,41.8582822 L216.397291,20.9597369 L211.167315,20.9597369 L211.167315,41.8582822 Z M213.761558,18.4514273 C212.896549,18.4514273 212.146614,18.1245722 211.511753,17.4700551 C210.876891,16.815538 210.559069,16.0423847 210.559069,15.149788 C210.559069,14.2588054 210.876891,13.4783886 211.511753,12.8093446 C212.146614,12.1411077 212.896549,11.8061822 213.761558,11.8061822 C214.653966,11.8061822 215.417209,12.1411077 216.052853,12.8093446 C216.686932,13.4783886 217.004754,14.2588054 217.004754,15.149788 C217.004754,16.0423847 216.686932,16.815538 216.052853,17.4700551 C215.417209,18.1245722 214.653966,18.4514273 213.761558,18.4514273 Z" id="Fill-37" fill="#FFFFFF"></path>
                    <path d="M225.222414,35.8881106 C226.316771,36.9984139 227.688629,37.5531534 229.337988,37.5531534 C230.986523,37.5531534 232.365792,36.9984139 233.474148,35.8881106 C234.583327,34.7778072 235.137505,33.3699393 235.137505,31.662034 C235.137505,29.9549529 234.583327,28.5462607 233.474148,27.4359574 C232.365792,26.3256541 230.986523,25.7709146 229.337988,25.7709146 C227.688629,25.7709146 226.316771,26.3256541 225.222414,27.4359574 C224.127233,28.5462607 223.580466,29.9549529 223.580466,31.662034 C223.580466,33.3699393 224.127233,34.7778072 225.222414,35.8881106 M237.35504,39.6657795 C235.165502,41.8435237 232.493426,42.9315715 229.337988,42.9315715 C226.181726,42.9315715 223.516237,41.8435237 221.341521,39.6657795 C219.166805,37.4888597 218.079035,34.821494 218.079035,31.662034 C218.079035,28.5033982 219.166805,25.8352083 221.341521,23.6582884 C223.516237,21.4805443 226.181726,20.3924965 229.337988,20.3924965 C232.493426,20.3924965 235.165502,21.4805443 237.35504,23.6582884 C239.543755,25.8352083 240.638936,28.5033982 240.638936,31.662034 C240.638936,34.821494 239.543755,37.4888597 237.35504,39.6657795" id="Fill-39" fill="#FFFFFF"></path>
                    <g id="Sadeed-02">
                        <path d="M31.8703448,33.1753448 L5.03068966,33.1753448 C3.48103448,33.1753448 2.22465517,31.9184483 2.22465517,30.3687931 L2.22465517,4.38982759 C2.22465517,2.84017241 3.48103448,1.58327586 5.03068966,1.58327586 L45.7122414,1.58327586 C47.2618966,1.58327586 48.5187931,2.84017241 48.5187931,4.38982759 C48.5187931,5.94 47.2618966,7.19637931 45.7122414,7.19637931 L7.83724138,7.19637931 L7.83724138,27.5622414 L31.8703448,27.5622414 C33.42,27.5622414 34.6768966,28.8191379 34.6768966,30.3687931 C34.6768966,31.9184483 33.42,33.1753448 31.8703448,33.1753448" id="Path" fill="#4355FF"></path>
                        <path d="M36.9103448,59.7227586 C36.1810345,59.7227586 35.4631034,59.4377586 34.9262069,58.9003448 L21.8503448,45.8260345 L5.03068966,45.8260345 C3.48103448,45.8260345 2.22413793,44.5696552 2.22413793,43.02 C2.22413793,41.4698276 3.48103448,40.2134483 5.03068966,40.2134483 L23.012069,40.2134483 C23.7563793,40.2134483 24.4701724,40.5093103 24.9967241,41.0353448 L34.1037931,50.1413793 L34.1037931,43.5294828 C34.1037931,41.9793103 35.3601724,40.722931 36.9103448,40.722931 L43.2931034,40.722931 L43.2931034,20.1858621 L17.9860345,20.1858621 C16.4358621,20.1858621 15.2953448,18.9289655 15.2953448,17.3793103 C15.2953448,15.8296552 16.4358621,14.5727586 17.9860345,14.5727586 L46.0996552,14.5727586 C47.6498276,14.5727586 48.9062069,15.8296552 48.9062069,17.3793103 L48.9062069,43.5294828 C48.9062069,45.0791379 47.6498276,46.3360345 46.0996552,46.3360345 L39.7168966,46.3360345 L39.7168966,56.9162069 C39.7168966,58.0510345 39.0331034,59.0746552 37.9846552,59.5086207 C37.6365517,59.652931 37.2718966,59.7227586 36.9103448,59.7227586" id="Path" fill="#45E0EE"></path>
                        <polyline id="Path" fill="#F90606" points="45.7122414 7.19637931 48.5187931 7.19637931 48.5187931 1.58327586 42.7086207 1.58327586"></polyline>
                        <polyline id="Path" fill="#45E0EE" points="17.9860345 20.1858621 15.2141379 20.1858621 15.2141379 14.5727586 21.3186207 14.5727586"></polyline>
                        <polyline id="Path" fill="#45E0EE" points="4.99655172 45.8043103 2.22465517 45.8043103 2.22465517 40.1912069 11.5272414 40.1912069"></polyline>
                        <polyline id="Path" fill="#4355FF" points="31.8703448 33.1753448 35.8867241 33.1753448 35.8867241 27.5591379 27.9744828 27.5591379"></polyline>
                        <path d="M50.0032759,4.38982759 C50.0032759,6.81413793 48.0377586,8.77965517 45.6134483,8.77965517 C43.1891379,8.77965517 41.2236207,6.81413793 41.2236207,4.38982759 C41.2236207,1.96551724 43.1891379,0 45.6134483,0 C48.0377586,0 50.0032759,1.96551724 50.0032759,4.38982759" id="Path" fill="#3037D1"></path>
                        <path d="M21.3186207,17.3793103 C21.3186207,19.8036207 19.3531034,21.7691379 16.9287931,21.7691379 C14.5044828,21.7691379 12.5389655,19.8036207 12.5389655,17.3793103 C12.5389655,14.955 14.5044828,12.9894828 16.9287931,12.9894828 C19.3531034,12.9894828 21.3186207,14.955 21.3186207,17.3793103" id="Path" fill="#31B5FF"></path>
                        <path d="M37.9655172,30.3672414 C37.9655172,32.7915517 36,34.757069 33.5756897,34.757069 C31.1513793,34.757069 29.1858621,32.7915517 29.1858621,30.3672414 C29.1858621,27.942931 31.1513793,25.9774138 33.5756897,25.9774138 C36,25.9774138 37.9655172,27.942931 37.9655172,30.3672414" id="Path" fill="#3037D1"></path>
                        <path d="M8.77965517,42.9982759 C8.77965517,45.4225862 6.81413793,47.3881034 4.38982759,47.3881034 C1.96551724,47.3881034 0,45.4225862 0,42.9982759 C0,40.5739655 1.96551724,38.6084483 4.38982759,38.6084483 C6.81413793,38.6084483 8.77965517,40.5739655 8.77965517,42.9982759" id="Path" fill="#45E0EE"></path>
                    </g>
                </g>
            </g>
        </g>
    </g>
</svg>